<?xml version="1.0" encoding="UTF-8" standalone="no"?>
<svg
   height="24"
   width="24"
   version="1.1"
   id="svg4"
   sodipodi:docname="favicon.svg"
   inkscape:version="1.2.2 (b0a8486541, 2022-12-01)"
   xmlns:inkscape="http://www.inkscape.org/namespaces/inkscape"
   xmlns:sodipodi="http://sodipodi.sourceforge.net/DTD/sodipodi-0.dtd"
   xmlns="http://www.w3.org/2000/svg"
   xmlns:svg="http://www.w3.org/2000/svg">
  <defs
     id="defs8" />
  <sodipodi:namedview
     id="namedview6"
     pagecolor="#ffffff"
     bordercolor="#000000"
     borderopacity="0.25"
     inkscape:showpageshadow="2"
     inkscape:pageopacity="0.0"
     inkscape:pagecheckerboard="0"
     inkscape:deskcolor="#d1d1d1"
     showgrid="false"
     inkscape:zoom="6.3050355"
     inkscape:cx="7.6129627"
     inkscape:cy="-8.8024881"
     inkscape:window-width="840"
     inkscape:window-height="1025"
     inkscape:window-x="3632"
     inkscape:window-y="47"
     inkscape:window-maximized="1"
     inkscape:current-layer="svg4" />
  <path
     d="M 8.3457944,23.285047 6.3037383,19.845794 2.4345794,18.985981 2.8107477,15.009346 0.17757009,12 2.8107477,8.9906542 2.4345794,5.0140187 6.3037383,4.1542056 8.3457944,0.71495327 12,2.2733645 15.654206,0.71495327 17.696262,4.1542056 21.565421,5.0140187 21.189252,8.9906542 23.82243,12 l -2.633178,3.009346 0.376169,3.976635 -3.869159,0.859813 -2.042056,3.439253 L 12,21.726636 Z M 9.2593458,20.544393 12,19.36215 l 2.794393,1.182243 1.504672,-2.57944 2.955608,-0.698598 L 18.985981,14.257009 20.974299,12 18.985981,9.6892523 19.254673,6.6799065 16.299065,6.0350467 14.740654,3.4556075 12,4.6378505 9.2056075,3.4556075 7.7009346,6.0350467 4.7453271,6.6799065 5.0140187,9.6892523 3.0257009,12 l 1.9883178,2.257009 -0.2686916,3.063084 2.9556075,0.64486 z M 12,12 Z M 10.871495,15.815421 16.943925,9.7429907 15.439252,8.1845794 10.871495,12.752336 8.5607477,10.495327 7.0560748,12 Z"
     id="path2"
     style="stroke-width:1.07477;fill-opacity:1;fill:#e1567c" />
</svg>
